<svg width="15" height="25" viewBox="0 0 15 25" fill="none" xmlns="http://www.w3.org/2000/svg">
<g id="icon">
<path d="M0 15.8237C-1.57571e-07 17.0469 0.974291 18.0389 2.17612 18.0389C3.37795 18.0389 4.35225 17.0469 4.35225 15.8237C4.35225 14.9269 3.07482 14.0832 3.07482 12.5009C3.07482 11.0769 4.35225 10.075 4.35225 9.17815C4.35225 7.95497 3.37796 6.96296 2.17612 6.96296C0.974293 6.96296 1.01366e-06 7.95497 8.56092e-07 9.17815C7.40561e-07 10.075 1.27743 11.0769 1.27743 12.5009C1.27743 13.925 1.15531e-07 14.9269 0 15.8237Z" fill="white"/>
<path d="M10.5695 2.21519C10.5695 0.992016 11.5437 -1.60431e-07 12.7456 0C13.9474 1.60431e-07 14.9217 0.992017 14.9217 2.21519C14.9217 2.60039 14.6861 2.97578 14.4172 3.40409C14.06 3.97301 13.6443 4.6353 13.6443 5.53799C13.6443 6.33196 14.0414 6.9947 14.3928 7.58118C14.6716 8.04659 14.9217 8.46397 14.9217 8.86078C14.9217 8.91397 14.9199 8.96672 14.9162 9.01898C14.9199 9.07124 14.9217 9.12398 14.9217 9.17718C14.9217 9.56237 14.6861 9.93776 14.4172 10.3661C14.06 10.935 13.6443 11.5973 13.6443 12.5C13.6443 13.2939 14.0414 13.9567 14.3928 14.5432C14.6716 15.0086 14.9217 15.426 14.9217 15.8228C14.9217 15.876 14.9199 15.9287 14.9162 15.981C14.9199 16.0332 14.9217 16.086 14.9217 16.1392C14.9217 16.536 14.6716 16.9534 14.3928 17.4188C14.0414 18.0053 13.6443 18.668 13.6443 19.462C13.6443 20.3647 14.06 21.027 14.4172 21.5959C14.6861 22.0242 14.9217 22.3996 14.9217 22.7848C14.9217 24.008 13.9474 25 12.7456 25C11.5437 25 10.5695 24.008 10.5695 22.7848C10.5695 22.388 10.8195 21.9706 11.0984 21.5052C11.4498 20.9187 11.8469 20.256 11.8469 19.462C11.8469 18.668 11.4498 18.0053 11.0984 17.4188C10.8195 16.9534 10.5695 16.536 10.5695 16.1392C10.5695 16.086 10.5713 16.0333 10.5749 15.981C10.5713 15.9287 10.5695 15.876 10.5695 15.8228C10.5695 15.426 10.8195 15.0086 11.0984 14.5432C11.4498 13.9567 11.8469 13.2939 11.8469 12.5C11.8469 11.706 11.4498 11.0433 11.0984 10.4568C10.8195 9.99137 10.5695 9.57399 10.5695 9.17718C10.5695 9.12399 10.5713 9.07124 10.5749 9.01899C10.5713 8.96673 10.5695 8.91397 10.5695 8.86078C10.5695 8.46397 10.8195 8.04659 11.0984 7.58118C11.4498 6.9947 11.8469 6.33196 11.8469 5.53799C11.8469 4.74401 11.4498 4.08127 11.0984 3.4948C10.8195 3.02938 10.5695 2.612 10.5695 2.21519Z" fill="white"/>
<path d="M7.46065 21.5195C6.25882 21.5195 5.28453 20.5275 5.28453 19.3043C5.28453 18.9075 5.53461 18.4901 5.81347 18.0247C6.16486 17.4382 6.56196 16.7755 6.56196 15.9815C6.56196 15.1875 6.16486 14.5248 5.81347 13.9383C5.53461 13.4729 5.28453 13.0555 5.28453 12.6587C5.28453 12.6055 5.28637 12.5528 5.29 12.5005C5.28637 12.4482 5.28453 12.3955 5.28453 12.3423C5.28453 11.9455 5.53461 11.5281 5.81347 11.0627C6.16486 10.4762 6.56195 9.81345 6.56195 9.01948C6.56196 8.2255 6.16486 7.56276 5.81347 6.97629C5.53461 6.51087 5.28453 6.09349 5.28453 5.69668C5.28453 4.4735 6.25882 3.48149 7.46065 3.48149C8.66249 3.48149 9.63678 4.4735 9.63678 5.69668C9.63678 6.08188 9.40113 6.45726 9.13225 6.88558C8.77511 7.45449 8.35935 8.11679 8.35935 9.01948C8.35935 9.81345 8.75644 10.4762 9.10784 11.0627C9.3867 11.5281 9.63678 11.9455 9.63678 12.3423C9.63678 12.3955 9.63493 12.4482 9.63131 12.5005C9.63494 12.5527 9.63678 12.6055 9.63678 12.6587C9.63678 13.0555 9.3867 13.4729 9.10784 13.9383C8.75645 14.5248 8.35935 15.1875 8.35935 15.9815C8.35935 16.8842 8.77511 17.5465 9.13225 18.1154C9.40113 18.5437 9.63678 18.9191 9.63678 19.3043C9.63678 20.5275 8.66249 21.5195 7.46065 21.5195Z" fill="white"/>
</g>
</svg>
