<svg width="88" height="26" viewBox="0 0 88 26" fill="none" xmlns="http://www.w3.org/2000/svg">
<g id="Logo">
<g id="Chain">
<path d="M30.8827 22.5646C29.2573 22.5646 27.8618 22.2721 26.6962 21.6872C25.5306 21.1023 24.5783 20.3418 23.8395 19.406C23.1172 18.4701 22.5836 17.4506 22.2388 16.3476C21.8941 15.2446 21.7217 14.1834 21.7217 13.1639V12.6124C21.7217 11.476 21.8941 10.3562 22.2388 9.25321C22.6 8.1502 23.15 7.14746 23.8888 6.24499C24.6276 5.34253 25.5634 4.6239 26.6962 4.0891C27.8454 3.53759 29.1999 3.26184 30.7595 3.26184C32.3849 3.26184 33.7968 3.56266 34.9953 4.16431C36.2102 4.74924 37.1788 5.58486 37.9012 6.67116C38.6236 7.74075 39.0586 8.99417 39.2064 10.4314H35.6848C35.5535 9.59582 35.258 8.8939 34.7983 8.32568C34.355 7.74075 33.7886 7.30623 33.099 7.02212C32.4095 6.72129 31.6297 6.57088 30.7595 6.57088C29.873 6.57088 29.085 6.72965 28.3954 7.04718C27.7059 7.34801 27.1313 7.78253 26.6716 8.35075C26.2119 8.91897 25.8589 9.58746 25.6126 10.3562C25.3828 11.125 25.2679 11.9773 25.2679 12.9132C25.2679 13.8157 25.3828 14.6513 25.6126 15.4201C25.8589 16.1888 26.2201 16.8657 26.6962 17.4506C27.1723 18.0188 27.7551 18.4617 28.4447 18.7792C29.1506 19.0968 29.9633 19.2555 30.8827 19.2555C32.2289 19.2555 33.3617 18.9213 34.2811 18.2528C35.2169 17.5676 35.7833 16.615 35.9803 15.395H39.5019C39.3377 16.6986 38.9027 17.8935 38.1967 18.9798C37.4907 20.0661 36.5221 20.9351 35.2908 21.5869C34.0595 22.2387 32.5901 22.5646 30.8827 22.5646Z" fill="white"/>
<path d="M40.9506 22.0883V3.26184H44.3737V10.7886C44.7157 9.93087 45.2001 9.26868 45.8266 8.80198C46.5162 8.30061 47.3863 8.04993 48.437 8.04993H48.5848C50.1116 8.04993 51.2691 8.58472 52.0571 9.65431C52.8451 10.7239 53.2392 12.2781 53.2392 14.317V22.0883H49.8161V13.9912C49.8161 13.1221 49.5698 12.4369 49.0773 11.9355C48.6012 11.4342 47.9691 11.1835 47.1811 11.1835C46.3438 11.1835 45.6625 11.4676 45.1371 12.0358C44.6282 12.5873 44.3737 13.3143 44.3737 14.2168V22.0883H40.9506Z" fill="white"/>
<path fill-rule="evenodd" clip-rule="evenodd" d="M63.79 19.4668V22.0883H66.4989V13.6402C66.4989 12.3701 66.2608 11.3423 65.7847 10.5568C65.3251 9.7713 64.6355 9.19472 63.7161 8.82705C62.8132 8.45938 61.6721 8.27554 60.2931 8.27554C59.8498 8.27554 59.3737 8.2839 58.8647 8.30061C58.3722 8.30061 57.8879 8.31732 57.4118 8.35075C56.9357 8.38417 56.5088 8.4176 56.1312 8.45102V11.4091C56.5909 11.3757 57.1081 11.3506 57.6827 11.3339C58.2737 11.3005 58.8565 11.2754 59.4311 11.2587C60.0058 11.242 60.4983 11.2336 60.9087 11.2336C61.6968 11.2336 62.2796 11.4258 62.6572 11.8102C63.0348 12.1946 63.2236 12.7795 63.2236 13.565V13.6903H60.4901C59.308 13.6903 58.2737 13.8491 57.3872 14.1666C56.517 14.4842 55.8357 14.9605 55.3432 15.5955C54.8671 16.2306 54.629 17.0495 54.629 18.0523C54.629 18.9714 54.826 19.7569 55.22 20.4087C55.6305 21.0605 56.1969 21.5618 56.9193 21.9128C57.6581 22.2638 58.5118 22.4392 59.4804 22.4392C60.4162 22.4392 61.2042 22.2721 61.8445 21.9379C62.5012 21.5869 63.0102 21.0855 63.3714 20.4338C63.5406 20.1417 63.6801 19.8194 63.79 19.4668ZM63.2236 17.0495V15.771H60.4408C59.6528 15.771 59.0453 15.9716 58.6185 16.3727C58.208 16.7571 58.0028 17.2584 58.0028 17.8768C58.0028 18.4951 58.208 18.9965 58.6185 19.3809C59.0453 19.7653 59.6528 19.9575 60.4408 19.9575C60.9169 19.9575 61.352 19.8739 61.746 19.7068C62.1565 19.5229 62.493 19.2221 62.7557 18.8043C63.0348 18.3698 63.1908 17.7849 63.2236 17.0495Z" fill="white"/>
<path d="M69.5745 22.0883V8.27554H72.9976V22.0883H69.5745Z" fill="white"/>
<path d="M75.7113 8.27554V22.0883H79.1343V14.0914C79.1343 13.2057 79.3888 12.5038 79.8978 11.9857C80.4231 11.4509 81.1044 11.1835 81.9417 11.1835C82.7626 11.1835 83.4029 11.4425 83.8626 11.9606C84.3387 12.4787 84.5768 13.1555 84.5768 13.9912V22.0883H87.9998V14.292C87.9998 12.2197 87.5894 10.6654 86.7685 9.62924C85.9476 8.57636 84.7409 8.04993 83.1484 8.04993H83.0007C81.9335 8.04993 81.0388 8.2839 80.3164 8.75184C79.6104 9.21979 79.0769 9.92171 78.7157 10.8576C78.598 11.1571 78.4995 11.4814 78.4202 11.8305V8.27554H75.7113Z" fill="white"/>
</g>
<g id="icon">
<path d="M0 16.3237C-1.57571e-07 17.5469 0.974291 18.5389 2.17612 18.5389C3.37795 18.5389 4.35225 17.5469 4.35225 16.3237C4.35225 15.4269 3.07482 14.5832 3.07482 13.0009C3.07482 11.5769 4.35225 10.575 4.35225 9.67815C4.35225 8.45497 3.37796 7.46296 2.17612 7.46296C0.974293 7.46296 1.01366e-06 8.45497 8.56092e-07 9.67815C7.40561e-07 10.575 1.27743 11.5769 1.27743 13.0009C1.27743 14.425 1.15531e-07 15.4269 0 16.3237Z" fill="white"/>
<path d="M10.5695 2.71519C10.5695 1.49202 11.5437 0.5 12.7456 0.5C13.9474 0.5 14.9217 1.49202 14.9217 2.71519C14.9217 3.10039 14.6861 3.47578 14.4172 3.90409C14.06 4.47301 13.6443 5.1353 13.6443 6.03799C13.6443 6.83196 14.0414 7.4947 14.3928 8.08117C14.6716 8.54659 14.9217 8.96397 14.9217 9.36078C14.9217 9.41397 14.9199 9.46672 14.9162 9.51898C14.9199 9.57124 14.9217 9.62398 14.9217 9.67718C14.9217 10.0624 14.6861 10.4378 14.4172 10.8661C14.06 11.435 13.6443 12.0973 13.6443 13C13.6443 13.7939 14.0414 14.4567 14.3928 15.0432C14.6716 15.5086 14.9217 15.926 14.9217 16.3228C14.9217 16.376 14.9199 16.4287 14.9162 16.481C14.9199 16.5332 14.9217 16.586 14.9217 16.6392C14.9217 17.036 14.6716 17.4534 14.3928 17.9188C14.0414 18.5053 13.6443 19.168 13.6443 19.962C13.6443 20.8647 14.06 21.527 14.4172 22.0959C14.6861 22.5242 14.9217 22.8996 14.9217 23.2848C14.9217 24.508 13.9474 25.5 12.7456 25.5C11.5437 25.5 10.5695 24.508 10.5695 23.2848C10.5695 22.888 10.8195 22.4706 11.0984 22.0052C11.4498 21.4187 11.8469 20.756 11.8469 19.962C11.8469 19.168 11.4498 18.5053 11.0984 17.9188C10.8195 17.4534 10.5695 17.036 10.5695 16.6392C10.5695 16.586 10.5713 16.5333 10.5749 16.481C10.5713 16.4287 10.5695 16.376 10.5695 16.3228C10.5695 15.926 10.8195 15.5086 11.0984 15.0432C11.4498 14.4567 11.8469 13.7939 11.8469 13C11.8469 12.206 11.4498 11.5433 11.0984 10.9568C10.8195 10.4914 10.5695 10.074 10.5695 9.67718C10.5695 9.62399 10.5713 9.57124 10.5749 9.51899C10.5713 9.46673 10.5695 9.41397 10.5695 9.36078C10.5695 8.96397 10.8195 8.54659 11.0984 8.08117C11.4498 7.4947 11.8469 6.83196 11.8469 6.03799C11.8469 5.24401 11.4498 4.58127 11.0984 3.9948C10.8195 3.52938 10.5695 3.112 10.5695 2.71519Z" fill="white"/>
<path d="M7.46065 22.0195C6.25882 22.0195 5.28453 21.0275 5.28453 19.8043C5.28453 19.4075 5.53461 18.9901 5.81347 18.5247C6.16486 17.9382 6.56196 17.2755 6.56196 16.4815C6.56196 15.6875 6.16486 15.0248 5.81347 14.4383C5.53461 13.9729 5.28453 13.5555 5.28453 13.1587C5.28453 13.1055 5.28638 13.0528 5.29 13.0005C5.28637 12.9482 5.28453 12.8955 5.28453 12.8423C5.28453 12.4455 5.53461 12.0281 5.81347 11.5627C6.16486 10.9762 6.56195 10.3134 6.56195 9.51948C6.56195 8.7255 6.16486 8.06276 5.81347 7.47629C5.53461 7.01087 5.28453 6.59349 5.28453 6.19668C5.28453 4.9735 6.25882 3.98149 7.46065 3.98149C8.66249 3.98149 9.63678 4.9735 9.63678 6.19668C9.63678 6.58188 9.40113 6.95726 9.13225 7.38558C8.77511 7.95449 8.35935 8.61679 8.35935 9.51948C8.35935 10.3134 8.75644 10.9762 9.10784 11.5627C9.3867 12.0281 9.63678 12.4455 9.63678 12.8423C9.63678 12.8955 9.63493 12.9482 9.63131 13.0005C9.63494 13.0527 9.63678 13.1055 9.63678 13.1587C9.63678 13.5555 9.3867 13.9729 9.10784 14.4383C8.75645 15.0248 8.35935 15.6875 8.35935 16.4815C8.35935 17.3842 8.77511 18.0465 9.13225 18.6154C9.40113 19.0437 9.63678 19.4191 9.63678 19.8043C9.63678 21.0275 8.66249 22.0195 7.46065 22.0195Z" fill="white"/>
</g>
</g>
</svg>
